/* XPM */
static char *dcc917469761429ebe8542d840c35ae48N8LUoJJyt0O5aCb[] = {
/* columns rows colors chars-per-pixel */
"32 32 159 2 ",
"   c #171A26",
".  c #181B27",
"X  c #181B28",
"o  c #1D202C",
"O  c #21242F",
"+  c #272B34",
"@  c #2E3139",
"#  c #30343C",
"$  c #35393F",
"%  c #394532",
"&  c #363A41",
"*  c #3A3E45",
"=  c #3E4147",
"-  c #3E4249",
";  c #42464C",
":  c #45494E",
">  c #5D4C4C",
",  c #474B52",
"<  c #4A4E53",
"1  c #4E5259",
"2  c #505357",
"3  c #52555B",
"4  c #56595E",
"5  c #595C5C",
"6  c #6A504C",
"7  c #7F5F53",
"8  c #536148",
"9  c #63684D",
"0  c #617349",
"q  c #676B51",
"w  c #6A6E55",
"e  c #72765D",
"r  c #575B60",
"t  c #5A5D62",
"y  c #5E6166",
"u  c #5F6368",
"i  c #616466",
"p  c #636A64",
"a  c #6C6A67",
"s  c #62656A",
"d  c #6E6768",
"f  c #66696D",
"g  c #6A6C6D",
"h  c #7E6462",
"j  c #706B63",
"k  c #736C6B",
"l  c #697660",
"z  c #6D7B61",
"x  c #69706A",
"c  c #757860",
"v  c #7A7D65",
"b  c #75736D",
"n  c #737D6B",
"m  c #696D71",
"M  c #6D7174",
"N  c #717376",
"B  c #767D77",
"V  c #7A7A75",
"C  c #76797C",
"Z  c #7A7C7E",
"A  c #86442D",
"S  c #834836",
"D  c #9C4B32",
"F  c #964E39",
"G  c #AA5034",
"H  c #AA5339",
"J  c #A25E45",
"K  c #AE6E59",
"L  c #B46A52",
"P  c #8E7062",
"I  c #778F53",
"U  c #788F55",
"Y  c #71835C",
"T  c #788B5D",
"R  c #7C9554",
"E  c #7F9A55",
"W  c #7D945A",
"Q  c #728067",
"!  c #7A8C63",
"~  c #76846A",
"^  c #7A8373",
"/  c #7D837E",
"(  c #819D55",
")  c #819B58",
"_  c #84A356",
"`  c #87A758",
"'  c #89AB59",
"]  c #84866F",
"[  c #839A63",
"{  c #8A9A6A",
"}  c #828175",
"|  c #8B8A77",
" . c #82837C",
".. c #8A8A7C",
"X. c #809173",
"o. c #86917C",
"O. c #8F907A",
"+. c #93947D",
"@. c #87A461",
"#. c #8DAC61",
"$. c #8FA16D",
"%. c #8FB060",
"&. c #91B163",
"*. c #9AB76B",
"=. c #9CB96D",
"-. c #9FBB71",
";. c #A0BC72",
":. c #A0B67B",
">. c #7B7E81",
",. c #7E8183",
"<. c #818485",
"1. c #878882",
"2. c #8B8C82",
"3. c #828689",
"4. c #86898C",
"5. c #8A8D8D",
"6. c #8D9587",
"7. c #8B9984",
"8. c #969780",
"9. c #9A998A",
"0. c #8C8E90",
"q. c #8E9193",
"w. c #919394",
"e. c #929496",
"r. c #949994",
"t. c #9B9C93",
"y. c #96999A",
"u. c #999C9D",
"i. c #A3A48C",
"p. c #A5BA80",
"a. c #A8BC83",
"s. c #A7A393",
"d. c #ABA797",
"f. c #ABAA96",
"g. c #A2AD99",
"h. c #ADA999",
"j. c #B4B39D",
"k. c #9EA1A1",
"l. c #A4A6A6",
"z. c #A6A8A9",
"x. c #AAADAB",
"c. c #ACB3A5",
"v. c #B7B4A2",
"b. c #B8B7A1",
"n. c #BAB8A3",
"m. c #B2B3B2",
"M. c #BABCBB",
"N. c #C4C2AD",
"B. c #C6C9AC",
"V. c #C7C4B0",
"C. c #C8C6B1",
"Z. c #D1CFB9",
"A. c #CFD2B4",
"S. c #D4D2BC",
"D. c #D8D6BF",
"F. c #D5D8BA",
"G. c #DAD7C2",
"H. c #E0DDC7",
"J. c #E7E4CD",
/* pixels */
"4 * # * - f m f Z M m t N * m 3.N C Z Z <.C >.>.N C t k K L h 2 ",
"M t r , - & & y <.q.M 1 y.M.C N C 4.5.e.e.0.M f 2 t < 6 J G H h ",
"t N m s 3 s & N = C 1 1 # : s M ,.,.m O 1 u.>.>.m m M i P D G F ",
"r 2 ,.s : : + = C g 4.m m s N N <.C z.M t e.<.3.>.4.M 5 b 7 A S ",
"m < @ r t i s 1 @ < ,.4.C N m >.,.f r.c.o.^ / >.p X.N j a N > d ",
"M 3.t s y 5 N y 4 , s C 5.>.Z 3./ [ ' ` _ R R ! @.*.[ b j k Z 4 ",
"< N m 1 y t s ,.Z m y Z y.z.u.7.' =.;.-.&.' E R ) #.R z a j b 4 ",
"C C M m M i Z C s 4 y M 0.z.g.' =.;.;.;.-.' ' R R R W <.a a Z 0.",
">.2 m s 4 m # * C 3 4 ; f t.#.' -.;.;.;.;.' ' _ R R ! 2 : 4 4 f ",
"< f ; s t <.>.< 1 1 & + 2.S.B.' *.;.;.;.-.' ' ` R R R / m s g 3 ",
"t , ; ; M M l.C , : * } S.S.S.A.&.=.;.=.%.' ' ` R R R n M t N ; ",
"4 - ; < t t t s 4 -  .S.S.S.H.J.F.#.' ' ' ' ' _ R R R z 1 m f r ",
"i N s u 3 4 2 : 4 ..S.S.S.H.J.J.J.F.' ' ' ' ' R R R R l 5.f C M ",
"m f 1 * m r m <.t.S.S.S.H.J.J.J.J.G.B.' ' ' E R R R R x 4 C C m ",
"f y 5.f 3 2 + } S.S.S.H.J.J.J.J.G.S.S.B.' E R R R R T ,.,.y t g ",
">.C f M 1 4 ..S.S.S.f.] +.S.J.G.S.S.S.S.f.W R R R R % s f M g f ",
"t 5.M y >.t.S.S.S.n.w b.8.v G.S.S.S.S.v.h.i.W R R 8 + + g N N f ",
"+ 4 m t 2.S.S.S.H.f.+.J.S.9 C.S.S.S.v.h.h.h.i.W 6.C f m f g M m ",
"3.s t 9.S.S.S.H.J.N.w j.+.v N.f.V.v.h.h.h.h.h.2.m.k.M < N N C q.",
"t q.Q Z.S.S.H.J.J.J.b.] O.C.e c w d.h.h.h.h. .= ; 4 <.s 2 s 1   ",
"X ~ ' :.S.H.J.J.J.J.G.S.N.h.f.9.9 s.h.h.h. .N N m , < ; @ m < . ",
"p _ ' ' p.J.J.J.J.G.S.S.f.9 9 q | h.h.h.1.f f < < u 4 - o <.u.m ",
"Y _ ' ' ' a.J.J.G.S.S.S.S.| q s.h.h.h.V 2 4 4 t < : f f @ X 5.<.",
"R ( ' ' ' ' a.D.S.S.S.S.v.h.9.h.h.h.b t 1 4 4 t 4 , 2 t 2 * # - ",
"R R ' ' ' ' ' :.S.S.S.v.h.h.h.h.h.V 2 y m N M s y 1 m f 4 t ; < ",
"U R ( ' ' ' ' ' :.Z.v.h.h.h.h.h. .u.N y 2 s Z N y 2 y i t t 4 < ",
"Y R R ( ' ' ' ' ' $.f.h.h.h.h.5.y s m m : t f f >.s < y 4 4 t 4 ",
"g W R R ( ' ' ' E R { f.h.h.V y s N y x.q.m t f y M y r t < 4 4 ",
"i p I R R E ( R R R R { d.1.N m t m m t C 2 t s m t <.u t 1 ; 4 ",
"$ Z B I R R R R R R R R ^ >.m N Z Z C s >.s r s Z f f M N M t 2 ",
"2 f M.r.R R R R R R R n C <.C N Z N N f C >.s N m 4 y < f f f m ",
": & X + 5 0 W R W ! x M ,.Z w.C f >.N C ,.,.M N >.f m m 2 y y t "
};
