/* XPM */
static char *_7df833875564b6b99a758bf2eb3daa93sBUNOxXYI3QCx9N[] = {
/* columns rows colors chars-per-pixel */
"32 32 178 2 ",
"   c #171A26",
".  c #181B27",
"X  c #191C28",
"o  c #1D202C",
"O  c #20232E",
"+  c #272A34",
"@  c #292D35",
"#  c #2D3037",
"$  c #2E3239",
"%  c #30343C",
"&  c #35393F",
"*  c #6A1D1E",
"=  c #54373F",
"-  c #623D3F",
";  c #713C3C",
":  c #745930",
">  c #363A42",
",  c #3A3D44",
"<  c #3E4147",
"1  c #3D4149",
"2  c #46464A",
"3  c #42464C",
"4  c #45494E",
"5  c #474B51",
"6  c #4A4D53",
"7  c #4F5258",
"8  c #515357",
"9  c #52565B",
"0  c #56595E",
"q  c #585B5F",
"w  c #764446",
"e  c #575B60",
"r  c #5A5E62",
"t  c #5E6166",
"y  c #5F6368",
"u  c #55687C",
"i  c #616366",
"p  c #62656A",
"a  c #66696D",
"s  c #686B6E",
"d  c #6A6D71",
"f  c #6E7174",
"g  c #707376",
"h  c #76797C",
"j  c #797C7E",
"k  c #A2281F",
"l  c #93393A",
"z  c #A72E2C",
"x  c #BB3735",
"c  c #C52C29",
"v  c #E93C2C",
"b  c #9B4B0B",
"n  c #AE5C12",
"m  c #BB571E",
"M  c #894C29",
"N  c #894E38",
"B  c #AC4129",
"V  c #D66C12",
"C  c #F17C0D",
"Z  c #E87814",
"A  c #CA4C2D",
"S  c #C4562E",
"D  c #D14239",
"F  c #ED4A2C",
"G  c #EF552A",
"H  c #F55B2B",
"J  c #E34836",
"K  c #F65B30",
"L  c #DF682C",
"P  c #DE722A",
"I  c #D97233",
"U  c #EE6826",
"Y  c #F77822",
"T  c #825E4F",
"R  c #895050",
"E  c #A74848",
"W  c #896642",
"Q  c #866151",
"!  c #A65D69",
"~  c #8B7D7D",
"^  c #C65C55",
"/  c #FA980A",
"(  c #EB831B",
")  c #F9821F",
"_  c #FC8C1D",
"`  c #E19014",
"'  c #FDA90C",
"]  c #D89F35",
"[  c #E98525",
"{  c #F1852A",
"}  c #F49033",
"|  c #F4AC3A",
" . c #FBB930",
".. c #FCC432",
"X. c #B48A5A",
"o. c #86846E",
"O. c #A99677",
"+. c #CF9F44",
"@. c #E8BA5D",
"#. c #F4BF54",
"$. c #FB8A7B",
"%. c #1A438D",
"&. c #2D5585",
"*. c #205594",
"=. c #2570A9",
"-. c #526390",
";. c #577997",
":. c #767486",
">. c #7B7E81",
",. c #7E8183",
"<. c #7F878B",
"1. c #758495",
"2. c #5A8FBF",
"3. c #738BA4",
"4. c #7390A7",
"5. c #3493CB",
"6. c #3AA8DB",
"7. c #4F9ACA",
"8. c #45A7D2",
"9. c #54A3D0",
"0. c #7AAFD2",
"q. c #62B0DC",
"w. c #818486",
"e. c #8D8787",
"r. c #838688",
"t. c #86898C",
"y. c #8A8C8E",
"u. c #918087",
"i. c #8C8E90",
"p. c #8E9193",
"a. c #929496",
"s. c #959798",
"d. c #96999A",
"f. c #9A9C9C",
"g. c #B9968B",
"h. c #AF9394",
"j. c #BBA782",
"k. c #889AA9",
"l. c #959FA9",
"z. c #9EA1A1",
"x. c #8BA5BE",
"c. c #98A8B4",
"v. c #9AB5BE",
"b. c #A3A4A5",
"n. c #A5A9AB",
"m. c #AAABAB",
"M. c #B5AAAB",
"N. c #A8AFB3",
"B. c #AFB1B1",
"V. c #A9B4BA",
"C. c #B3B3B4",
"Z. c #B6B5B6",
"A. c #BBBBBB",
"S. c #CEAA9D",
"D. c #D2AC9F",
"F. c #D3AFAB",
"G. c #C0B0AF",
"H. c #E2BDAD",
"J. c #EDB8B0",
"K. c #BEC0BD",
"L. c #DEC08A",
"P. c #8AA8C0",
"I. c #A9B8C1",
"U. c #B7C1C5",
"Y. c #BDCFD8",
"T. c #A4CEE2",
"R. c #C3C4C4",
"E. c #C6C7C8",
"W. c #C7C8C8",
"Q. c #C8C8C9",
"!. c #C8D5DC",
"~. c #D2D5D6",
"^. c #CCDDE8",
"/. c #DDE9F0",
"(. c #E4E7EA",
"). c #E4ECF1",
"_. c #EEF5F8",
"`. c #F5F7F9",
/* pixels */
"e , % , 1 a d a j f d r g , d r.g h j j w.h >.>.g h r a >.r.a 8 ",
"f p e 5 1 < 8 y w.p.f 7 d.A.h g h t.y.s.s.s.f a 8 r 6 3 & # t.a ",
"r g f p y s & g < h 7 7 < 6 p i.y.w.d + i f.>.>.d d f y >.7 0 f ",
"e 8 ,.d 7 4 + < h s t.j d p C.n.E.f.m.h r s.w.r.>.t.h 8 i 5 8 r ",
"d 6 < y y i p 7 $ 6 w.i.h a.Z.8.=.R.f.K.i.j >.>.y >.>.w.d g 6 d ",
"f y.p p y y g y 0 8 p h y.E.v.0.2.1.C.a >.w.r.,.w.>.>.r.d g t.0 ",
"6 j d 7 y r s ,.>.d y j a.Z.T.9.7.*.A.y.t.,.r.h r.f h p a s h r ",
"h h f d f i j h p 0 y f m.c.q.6.5.%.C.9 y >.>.>.g g w.w.d d j i.",
">.8 d p 0 d , , h 9 0 3 Z.f.I.k.k.l.d.s.,.j d >.f a f 8 4 y 0 a ",
"6 a 2 p r r.>.6 7 9 > @ B.m.`.c.c./.V.A.a 5 < p f r a ,.g d s 9 ",
"r 5 3 3 g g b.h 5 4 3 O A.m._.~.~.).N.Q.a > o , a a y f h r g 3 ",
"9 1 3 i p r r p 0 1 , b.e.M.G.J.J l.f.M.b.p 1 4 h d g f 7 d p e ",
"i g d y 9 0 8 4 0 6 ,.C.A H.g.$.F u.D.k R.d e 3 0 d i y i.a h f ",
"d s 8 , d e d w.h j R.l Y H.A.^ E k.D.U ~ B.a y d ,.f a r j h d ",
"a i y.a 9 8 + X % p b.D _ H.`.~.!.^.S.) k R.t.d 7 4 d ,.,.p t d ",
">.h a f 7 0 4 > $ + N ( ( S.).(.(.Y.g.( Z h.f.6 o . . p a f s a ",
"r i.f y >.g h 8 3 - I _ _ H.c.`.`.4.S._ _ A A.>.e > + + s h g a ",
"+ q f r 9 n.y.p 7 w Y [ [ F.;._.).4.g.[ } U W.b.s.h a d f s f d ",
"r.p y d 9 g n.f.f R P { K D.x.).).x.! H [ L m.>.C.z.f 9 g g h p.",
"r p.e f p 7 q t.,.* H J z ~ P.N.U.x.= x v G Z.< 3 0 t.d 8 p 7   ",
"X f f.p r 8 6 0 p l c ; 4 <.3.1.!.3.2 j Q c Q.g d 0 8 3 $ d 6 . ",
"r f 0 p e r y 0 < w 8 g a O.-.+.] &.M g R.M.Q.6 8 p 9 1 o w.f.d ",
"r 8 9 5 y i 7 i.8 0 s r i L.:.#. .u V 4 7 g j r 7 4 a a $ X y.w.",
"8 y r p p 8 1 r w.d 8 r g @.S | ' B C 3 6 0 0 r 0 5 8 r 8 , % 1 ",
"9 7 s a 8 d i r s h s p f j.m / / m b , d h f p p 7 d a r a 3 6 ",
"9 8 6 9 f y t p p s f f d o.| ' / C Q r r p j g y e y i p r 9 6 ",
"p f a >.d f y 0 a a f ,.d : X...' n T g 6 r a a >.p 8 a 0 0 r 0 ",
"a h h w.b.>.a 7 p g >.>.h y 6 @.` 0 t B.p.d r a y g a i r 6 0 0 ",
"i p 3 X i r.9 g p f j j w.g g W M g d r h 8 r p d a w.y y 7 3 0 ",
"& >.h 5 3 s.g >.d a d p g >.d g j j h p >.p e p ,.a a f g f r 0 ",
"8 a A.d.y h f r h a h g h w.h g j g g a h >.p g d 0 y 6 a p d d ",
"5 > X + 0 % g h h g p f ,.j s.j d >.g h ,.w.f g >.a d d 8 p y y "
};
