/* XPM */
static char *_59f05638f814edcf9673df516b6c0e3wcygnFh2Miv5aAkH[] = {
/* columns rows colors chars-per-pixel */
"32 32 128 2 ",
"   c #171A26",
".  c #181B27",
"X  c #191C28",
"o  c #1D202C",
"O  c #21242F",
"+  c #232731",
"@  c #262A33",
"#  c #292C35",
"$  c #2D3139",
"%  c #30343C",
"&  c #35393F",
"*  c #363A41",
"=  c #3A3E44",
"-  c #3E4147",
";  c #3E4249",
":  c #42464C",
">  c #45494E",
",  c #464B51",
"<  c #4A4D53",
"1  c #4D5156",
"2  c #4F5259",
"3  c #505357",
"4  c #52565B",
"5  c #56595E",
"6  c #585B5F",
"7  c #575B60",
"8  c #5A5D62",
"9  c #5E6166",
"0  c #5F6368",
"q  c #616366",
"w  c #62656A",
"e  c #66696D",
"r  c #686B6F",
"t  c #6A6D71",
"y  c #6E7175",
"u  c #707376",
"i  c #727579",
"p  c #76797C",
"a  c #797C7F",
"s  c #7B7D82",
"d  c #7B7E82",
"f  c #7B7F82",
"g  c #7A7D81",
"h  c #7C7F81",
"j  c #7D7F81",
"k  c #7C7F83",
"l  c #7B7E81",
"z  c #7C8082",
"x  c #7D8082",
"c  c #7E8083",
"v  c #7E8183",
"b  c #7F8183",
"n  c #7D8084",
"m  c #7E8184",
"M  c #7F8284",
"N  c #7F8285",
"B  c #7E8183",
"V  c #808386",
"C  c #828485",
"Z  c #818486",
"A  c #808487",
"S  c #818487",
"D  c #828487",
"F  c #828587",
"G  c #838587",
"H  c #818386",
"J  c #818488",
"K  c #828588",
"L  c #828689",
"P  c #838689",
"I  c #848789",
"U  c #848789",
"Y  c #85888B",
"T  c #87898B",
"R  c #86898C",
"E  c #878A8C",
"W  c #878A8D",
"Q  c #86898B",
"!  c #888B8D",
"~  c #888C8E",
"^  c #898C8F",
"/  c #8A8D8F",
"(  c #8C8E8F",
")  c #898C8E",
"_  c #8C8E90",
"`  c #8C8F90",
"'  c #8C8F91",
"]  c #8B8E91",
"[  c #8D9092",
"{  c #8E9193",
"}  c #8F9394",
"|  c #8E9193",
" . c #909293",
".. c #919495",
"X. c #919496",
"o. c #919497",
"O. c #939597",
"+. c #939596",
"@. c #949698",
"#. c #979998",
"$. c #969899",
"%. c #95989A",
"&. c #979A9A",
"*. c #97999B",
"=. c #989B9C",
"-. c #999C9D",
";. c #9A9D9E",
":. c #9D9FA0",
">. c #9D9FA0",
",. c #9EA0A1",
"<. c #9FA1A2",
"1. c #9EA1A1",
"2. c #A1A4A4",
"3. c #A2A5A5",
"4. c #A4A6A6",
"5. c #A1A3A3",
"6. c #A5A8A9",
"7. c #A6A8A9",
"8. c #A7A9A9",
"9. c #A7A9A9",
"0. c #A8AAA9",
"q. c #ACAEAE",
"w. c #ACAFAD",
"e. c #B1B3B2",
"r. c #B8BAB9",
"t. c #BCBEBB",
"y. c #BBBDBC",
"u. c #B9BABA",
/* pixels */
"5 = % = ; e t e a y t 8 u = t P u p a a C p h g u p 8 e h P e 3 ",
"y 8 7 , ; * * 9 C { y 2 &.y.p u p R ! O.O.` y e 3 8 < : $ # R e ",
"8 u t w 4 w * u - p 2 2 % > w y v N t O 2 =.g g t t y 8 a 2 5 y ",
"7 3 N w > > # - p r R t t w u u C p 0.y 8 O.V P g T y , q , 3 8 ",
"t < $ 7 8 q w 2 $ < v R p u t g v e &.t.` a g g 9 g p N t u < t ",
"y P 8 w 9 6 u 9 5 , w p / g a P v u e e a v I v C p g P t u T 5 ",
"< u t 2 9 8 w N a t 9 a &.7.-.{ T v y ( T g V p N y p w e r p 5 ",
"p p y t y q a p w 5 9 y ` 7.q.3.&.` 9 - 9 g a g u u C C t t a ` ",
"h 3 t w 5 t % = p 4 5 : e C  .r.7.:.} t N p t g y e y 3 > 5 5 e ",
"< e : w 8 V g < 2 2 * # < 4 / / ,.3.,.C e : - w t 8 e v t w r 4 ",
"8 , : : y y 4.p , > = O X $ , w g O.a C 9 * o = e e 9 t y 8 u : ",
"5 ; : < 8 8 8 w 5 ; = . . . X @ 5 y ] I g w : > p t e w 2 t e 7 ",
"q u w 0 4 5 3 > 5 > @ . . . . X $ , 8 V t t 7 : 5 9 9 9 / e p y ",
"t e 2 = t 7 t C p y , . . . . . X = 7 @./ g e 9 w a y e 5 p p t ",
"e 9 / e 4 3 @ . @ r t % . . o = : ; 8 8 ;.,.T t , > t N v 9 8 r ",
"g p e y 2 5 > * $ % u p < ; > > , 5 7 u < e e < o . . w e y r e ",
"8 / y 9 g u t 3 , ; , y a e 7 9 7 7 w u u 5 w h 7 * # # r u u e ",
"@ 5 t 8 3 3./ w 2 7 4 3 w y y e g I y 5 y 8 a 5.O.p e t e r y t ",
"I w 8 e < u 7.-.y 7 8 8 t t 2 C > $ :.y t ! 8 h e.,.y < u u p { ",
"8 { 7 e 8 2 6 T R t t 9 = &.a 8 e.p u w u r e - : 5 V w 3 w 2   ",
". t @.w 8 2 < 5 t v t y 0 , 5 7 9 t 0 w t t u u t , < : $ t < . ",
"8 9 5 e 7 8 8 5 = u y p u 9 t w 9 e w u u e e < < 0 5 ; o V =.t ",
"8 3 4 , 0 q 2 ] 3 5 r w r 8 p t 7 r e w 3 5 5 8 < > e e $ . ! H ",
"3 9 8 w w 3 ; 8 V t 3 9 a T 5 8 8 9 < 8 2 5 5 8 5 , 3 8 3 = % ; ",
"4 2 r e 3 t 8 8 e p r e 9 9 w r p 7 3 9 t u y w 9 2 t e 5 8 : < ",
"4 3 < 4 t 9 9 w w e t u t 9 e + e -.u 9 3 w a u 9 3 9 q 8 8 5 < ",
"w y e p w y 9 5 e e y p r 9 a N 9 w t t > 8 e e k w < 9 5 5 8 5 ",
"e p u h 5.g e 2 w u p p u t 9 9 w u 9 q.{ t 8 e 9 y 9 7 8 < 5 5 ",
"q w * X q P 4 u w e u a V u u t 8 t t 8 p 3 8 w t 8 V 0 8 2 : 5 ",
"& a p , : O.u h e w t w u g t u a a p w h w 7 w a e e y u y 8 3 ",
"3 e r.&.9 p y 8 p e p u p C p u a u u e p a w u t 5 9 < e e e t ",
"> * . # 5 % u p p u w y v a ..p e g u p N N y u g e t t 3 9 9 8 "
};
