/* XPM */
static char *result[] = {
/* columns rows colors chars-per-pixel */
"32 32 100 2 ",
"   c #00000D",
".  c #000612",
"X  c #0F0F10",
"o  c #00061C",
"O  c #0B121C",
"+  c #161718",
"@  c #15181C",
"#  c #051323",
"$  c #0B1620",
"%  c #081928",
"&  c #121925",
"*  c #181B27",
"=  c #191C28",
"-  c #1F2021",
";  c #1C222A",
":  c #1E2A33",
">  c #202123",
",  c #23252A",
"<  c #262933",
"1  c #292D35",
"2  c #2F3031",
"3  c #253039",
"4  c #2E3139",
"5  c #343537",
"6  c #30343C",
"7  c #35393F",
"8  c #082644",
"9  c #363A41",
"0  c #3A3E43",
"q  c #3F4147",
"w  c #3D4149",
"e  c #2A4255",
"r  c #18737E",
"t  c #444545",
"y  c #42464C",
"u  c #45494E",
"i  c #474B51",
"p  c #4A4E53",
"a  c #4D5156",
"s  c #4E535A",
"d  c #505357",
"f  c #52565B",
"g  c #56595E",
"h  c #585B5F",
"j  c #495660",
"k  c #565C62",
"l  c #5A5D62",
"z  c #545E68",
"x  c #5D6166",
"c  c #5E646A",
"v  c #516370",
"b  c #616366",
"n  c #62656A",
"m  c #66696D",
"M  c #686B6E",
"N  c #6A6D71",
"B  c #6E7174",
"V  c #61707B",
"C  c #6E7378",
"Z  c #707376",
"A  c #737579",
"S  c #76797C",
"D  c #797C7F",
"F  c #677681",
"G  c #747C83",
"H  c #7B7E81",
"J  c #7E8184",
"K  c #7C8790",
"L  c #818386",
"P  c #838689",
"I  c #86898C",
"U  c #8A8C8E",
"Y  c #8C8E90",
"T  c #8E9193",
"R  c #8C9398",
"E  c #929496",
"W  c #91979C",
"Q  c #96999B",
"!  c #9A9C9D",
"~  c #9DA0A3",
"^  c #A2A4A6",
"/  c #A6A9AB",
"(  c #A9ACAD",
")  c #AEB6BC",
"_  c #B2B2B3",
"`  c #BBBCBC",
"'  c #B7BDC0",
"]  c #BDBFC0",
"[  c #C4C5C6",
"{  c #C2C6C9",
"}  c #C6C9CB",
"|  c #CCCECE",
" . c #D1D2D3",
".. c #D6D7D8",
"X. c #DDDEDE",
"o. c #E1E2E3",
"O. c #E6E7E8",
"+. c #EDEDED",
"@. c #F1F2F2",
"#. c #FDFDFD",
/* pixels */
"g 0 6 0 w m N m D N N l A 0 M P Z S D D P S H H A A l m J J M f ",
"C l k i w 9 9 x L R N d ! ` S Z S I I E E Y B m f l p y 4 1 I m ",
"l A N n g b 9 C t S a a 6 i b B J J N , a ! H H N M B x H a k B ",
"k d J n u u 1 q A M I N N n A A L D / C k E J P H I B i c i f l ",
"M p 4 h h c n a 4 p J I S %   # #   . ` T D H H x D S J N Z p N ",
"B P x n x h A x g i n S v R ( ( ( ( ~ V % J I H P S H P N Z I g ",
"i A M a x l n J G e I c ( X.` ` _ _  .[ k 8 J S H B S x M M S g ",
"S S B N Z b D S o R ) G ` b t ^ X X n P S   H H C A P P M N D Y ",
"H s B c g M 4 0 # W K V ^ 5 > + + + X p J w N H B m A f y h h m ",
"i m y b x J H a a F Y E ! + + + + + - g R n % c N l n J M n M g ",
"x i y t B B ^ A i 8 s ( Q t + + + 2 t Z ^ G % 0 M n b B B l A y ",
"f w y a x l l n k w j / ! Q B A A b N P ~ m % u S N n n p N m h ",
"c A n c g g f i k u z / +.O.[ X.o._ ! ..` n # i h l x x U n D Z ",
"M m a 0 M g N P S # ~ #.#. .` X.+.] ] +.#.' j c n D Z M h D S M ",
"M x U n f f < = < j ( +.} ( E ] o.E Q _ #.X.G % i u N L H b x M ",
"D S m B a k y 9 4 C [ / P o. .[ ] | ..^  .#.W $ > * * b M Z M n ",
"l Y N b H A N f 8 R #.O.! @. ./ ] _ +.( | #./ e g 0 1 1 M A A n ",
"< k N l f ^ I n # D  .Q U O.o._ _ | o.! ! X.Y : E S m M n M Z N ",
"P n l N p Z ^ ! # H ^ 5 H _ _ _ _ _ ^ ! A ! 5 O _ ~ B p Z A A T ",
"l E k m l d h U # m A l ^ #.@.+.O.@.O.[ M ~ 5 : y g P b d n d * ",
"* N E n k d p k 8 % , = ] #.#. .` #.#.[ c 1 ; e N i p t 2 B a * ",
"l x g m k l l k 0 A % 3 ] #.#.} / #.#.| k % r a p c k w ; L Q M ",
"l d f u x b f U f g M 3 U |  .Q D | ..~ s g h h i u n m 4 * U L ",
"f x k m n f q h L M f : ! _ ^ ^ ^ ` / ~ v g g h k i f l f 0 5 q ",
"f d N m f N k l n S r z Y ~ I a B ~ ! D ; # B n l a C m k l y p ",
"f f p f N l l n b N # H { { ~ 5 B } [ Q 2 O H Z b f l n k l k p ",
"n N N S n B c k M n . < 9 0 , @ 9 9 9 , @ & m m H n p l k k k k ",
"m H A H ^ H M d b A r #   # O # O   # # # % l m b C l k l p f f ",
"x c 9 = x P f B n m A H L Z A N k M M l A f l n m l L c k s y k ",
"7 H S u y E B J m n B n A H M A H H G n D c l n H m m C A N l d ",
"f m ` Q l H B l A m H Z A L A A H A A n H H n A N k x i M n M N ",
"u 7 = 1 g 6 B H A Z n Z H H T H m H A A L J B Z D m N M f x x l "
};
